<?xml version="1.0" encoding="utf-8"?>
<!-- Generator: Adobe Illustrator 25.2.1, SVG Export Plug-In . SVG Version: 6.00 Build 0)  -->
<svg version="1.1" id="Layer_1" xmlns="http://www.w3.org/2000/svg" xmlns:xlink="http://www.w3.org/1999/xlink" x="0px" y="0px"
	 viewBox="0 0 826 112" style="enable-background:new 0 0 826 112;" xml:space="preserve">
<g>
	<g>
		<path d="M6.1,6.4H18v53l47.3-53h15.3L44.2,46.6l39.9,59.2H70.1L36.4,55.1L18,75.5v30.2H6.1V6.4z"/>
	</g>
	<g>
		<path d="M108.6,6.4h11.9v99.4h-11.9V6.4z"/>
	</g>
	<g>
		<path d="M155.1,6.4h44.7c21.9,0,34.1,10.1,34.1,30.4c0,19.2-13.3,28.5-28.1,30.1l30.2,38.9h-14.8l-30.1-38.5h-24.1v38.5h-11.9V6.4
			z M199.9,56.6c14.8,0,22.2-6.7,22.2-19.9c0-13.2-7.4-19.7-22.2-19.7h-32.8v39.6H199.9z"/>
	</g>
	<g>
		<path d="M264.1,6.4H276v53l47.3-53h15.3l-36.4,40.2l39.9,59.2h-14.1l-33.7-50.7L276,75.5v30.2h-11.9V6.4z"/>
	</g>
	<g>
		<path d="M439.4,105.8L429.8,95c-8.7,7.4-19.3,12.1-31,12.1c-18.7,0-31.7-10.5-31.7-27.4c0-12.1,7.2-22.4,21.7-30.5
			c-7-8.1-11.2-14.9-11.2-22.2c0-11.2,8.7-22,24.8-22c17.8,0,24.6,11.6,24.6,22c0,9.9-6.1,16.8-20.6,24.7l23.4,26.1
			c3.6-5.1,6.4-10.8,8.8-16.6l8.4,8.9c-2.4,6-5.5,11.5-9.5,16.5l17.2,19.2H439.4z M422.4,86.6l-26.3-29.4
			c-11.2,6.5-16.8,13.2-16.8,22c0,10.2,8.5,16.9,20.4,16.9C408.8,96.1,416.3,92.4,422.4,86.6z M389.6,26.7c0,5.7,4.3,10.8,8.8,15.9
			l1.1,1.3c10.7-5.5,15.6-10.1,15.6-16.5c0-7.4-5.3-11.8-12.6-11.8C395.3,15.6,389.6,19.7,389.6,26.7z"/>
	</g>
	<g>
		<path d="M484.3,6.4h11.9v53l47.3-53h15.3l-36.4,40.2l39.9,59.2h-14.1l-33.7-50.7l-18.5,20.4v30.2h-11.9V6.4z"/>
	</g>
	<g>
		<path d="M586.8,6.4h11.9v99.4h-11.9V6.4z"/>
	</g>
	<g>
		<path d="M633.4,6.4h44.7c21.9,0,34.1,10.1,34.1,30.4c0,19.2-13.3,28.5-28.1,30.1l30.2,38.9h-14.8l-30.1-38.5h-24.1v38.5h-11.9V6.4
			z M678.1,56.6c14.8,0,22.2-6.7,22.2-19.9c0-13.2-7.4-19.7-22.2-19.7h-32.8v39.6H678.1z"/>
	</g>
	<g>
		<path d="M742.3,6.4h11.9v53l47.3-53h15.3l-36.4,40.2l39.9,59.2h-14.1l-33.7-50.7l-18.5,20.4v30.2h-11.9V6.4z"/>
	</g>
</g>
</svg>
