<?xml version="1.0" encoding="UTF-8"?>
<svg width="145px" height="25px" viewBox="0 0 145 25" version="1.1" xmlns="http://www.w3.org/2000/svg" xmlns:xlink="http://www.w3.org/1999/xlink">
    <title>Group Copy</title>
    <g id="Page-1" stroke="none" stroke-width="1" fill="none" fill-rule="evenodd">
        <g id="SINGLE-PRODUCT-PAGE" transform="translate(-262.000000, -1656.000000)">
            <g id="Group-Copy" transform="translate(262.000000, 1656.000000)">
                <polygon id="Star" fill="#000000" points="12.5 18.75 5.15268435 22.6127124 6.55589677 14.4313562 0.611793546 8.63728757 8.82634217 7.44364379 12.5 0 16.1736578 7.44364379 24.3882065 8.63728757 18.4441032 14.4313562 19.8473157 22.6127124"></polygon>
                <polygon id="Star-Copy" fill="#000000" points="43.5 18.75 36.1526843 22.6127124 37.5558968 14.4313562 31.6117935 8.63728757 39.8263422 7.44364379 43.5 0 47.1736578 7.44364379 55.3882065 8.63728757 49.4441032 14.4313562 50.8473157 22.6127124"></polygon>
                <path d="M72.5,1.12977573 L75.8416251,7.90064767 L83.3137259,8.98640747 L77.9068629,14.2567963 L79.1832501,21.6987047 L72.5,18.1851121 L65.8167499,21.6987047 L67.0931371,14.2567963 L61.6862741,8.98640747 L69.1583749,7.90064767 L72.5,1.12977573 Z" id="Star-Copy-2" stroke="#000000"></path>
                <path d="M101.5,1.12977573 L104.841625,7.90064767 L112.313726,8.98640747 L106.906863,14.2567963 L108.18325,21.6987047 L101.5,18.1851121 L94.8167499,21.6987047 L96.0931371,14.2567963 L90.6862741,8.98640747 L98.1583749,7.90064767 L101.5,1.12977573 Z" id="Star-Copy-3" stroke="#000000"></path>
                <path d="M132.5,1.12977573 L135.841625,7.90064767 L143.313726,8.98640747 L137.906863,14.2567963 L139.18325,21.6987047 L132.5,18.1851121 L125.81675,21.6987047 L127.093137,14.2567963 L121.686274,8.98640747 L129.158375,7.90064767 L132.5,1.12977573 Z" id="Star-Copy-4" stroke="#000000"></path>
            </g>
        </g>
    </g>
</svg>