<?xml version="1.0" encoding="UTF-8"?>
<svg width="145px" height="25px" viewBox="0 0 145 25" version="1.1" xmlns="http://www.w3.org/2000/svg" xmlns:xlink="http://www.w3.org/1999/xlink">
    <title>Group Copy</title>
    <g id="Page-1" stroke="none" stroke-width="1" fill="none" fill-rule="evenodd">
        <g id="SINGLE-PRODUCT-PAGE" transform="translate(-262.000000, -1656.000000)" fill="#000000">
            <g id="Group-Copy" transform="translate(262.000000, 1656.000000)">
                <polygon id="Star" points="12.5 18.75 5.15268435 22.6127124 6.55589677 14.4313562 0.611793546 8.63728757 8.82634217 7.44364379 12.5 0 16.1736578 7.44364379 24.3882065 8.63728757 18.4441032 14.4313562 19.8473157 22.6127124"></polygon>
                <polygon id="Star-Copy" points="43.5 18.75 36.1526843 22.6127124 37.5558968 14.4313562 31.6117935 8.63728757 39.8263422 7.44364379 43.5 0 47.1736578 7.44364379 55.3882065 8.63728757 49.4441032 14.4313562 50.8473157 22.6127124"></polygon>
                <polygon id="Star-Copy-2" points="72.5 18.75 65.1526843 22.6127124 66.5558968 14.4313562 60.6117935 8.63728757 68.8263422 7.44364379 72.5 0 76.1736578 7.44364379 84.3882065 8.63728757 78.4441032 14.4313562 79.8473157 22.6127124"></polygon>
                <polygon id="Star-Copy-3" points="101.5 18.75 94.1526843 22.6127124 95.5558968 14.4313562 89.6117935 8.63728757 97.8263422 7.44364379 101.5 0 105.173658 7.44364379 113.388206 8.63728757 107.444103 14.4313562 108.847316 22.6127124"></polygon>
                <polygon id="Star-Copy-4" points="132.5 18.75 125.152684 22.6127124 126.555897 14.4313562 120.611794 8.63728757 128.826342 7.44364379 132.5 0 136.173658 7.44364379 144.388206 8.63728757 138.444103 14.4313562 139.847316 22.6127124"></polygon>
            </g>
        </g>
    </g>
</svg>