<svg id="Layer_1" data-name="Layer 1" xmlns="http://www.w3.org/2000/svg" xmlns:xlink="http://www.w3.org/1999/xlink" width="18.8" height="15.8" viewBox="0 0 18.8 15.8"><defs><style>.cls-1{fill:#fff;}.cls-1,.cls-3,.cls-4{fill-rule:evenodd;}.cls-2{mask:url(#mask);}.cls-3{fill:#1a1a1a;}.cls-3,.cls-4{stroke:#000;stroke-width:0.8px;}</style><mask id="mask" x="-1.6" y="-2.6" width="23" height="21" maskUnits="userSpaceOnUse"><g transform="translate(-2.03 -3.03)"><g id="mask-2"><polygon id="path-1" class="cls-1" points="0.43 0.43 23.43 0.43 23.43 21.43 0.43 21.43 0.43 0.43"/></g></g></mask></defs><g id="Page-1"><g id="HEADER"><g id="Group-3"><g class="cls-2"><path id="Fill-1" class="cls-3" d="M6.87,4.08a2.68,2.68,0,0,0-.44,0A3.64,3.64,0,0,0,3.77,5.54a4.11,4.11,0,0,0-.58,3.28c.74,3.6,7.08,8.1,8.24,8.9,1.16-.8,7.49-5.3,8.24-8.9a4.07,4.07,0,0,0-.59-3.28,3.61,3.61,0,0,0-2.65-1.43h0a4.3,4.3,0,0,0-2.06.28,5.25,5.25,0,0,0-2.64,2.42.33.33,0,0,1-.58,0A5.25,5.25,0,0,0,8.5,4.39a4.46,4.46,0,0,0-1.63-.31" transform="translate(-2.03 -3.03)"/></g><path class="cls-4" d="M20.3,9c-.86,4.19-8.37,9.21-8.69,9.42a.31.31,0,0,1-.18.05.29.29,0,0,1-.18-.05c-.32-.21-7.83-5.23-8.7-9.43a4.68,4.68,0,0,1,.7-3.79,4.25,4.25,0,0,1,3.11-1.7,5.17,5.17,0,0,1,2.37.32A5.76,5.76,0,0,1,11.43,6a5.78,5.78,0,0,1,2.69-2.24,5.22,5.22,0,0,1,2.38-.32,4.27,4.27,0,0,1,3.11,1.7A4.69,4.69,0,0,1,20.3,9Z" transform="translate(-2.03 -3.03)"/></g></g></g></svg>