<?xml version="1.0" encoding="UTF-8"?>
<svg width="22px" height="17px" viewBox="0 0 22 17" version="1.1" xmlns="http://www.w3.org/2000/svg" xmlns:xlink="http://www.w3.org/1999/xlink">
    <title>Group 5</title>
    <g id="Page-1" stroke="none" stroke-width="1" fill="none" fill-rule="evenodd">
        <g id="HEADER" transform="translate(-1371.000000, -87.000000)" stroke="#1D1D1B" stroke-width="1.65">
            <g id="Group-5" transform="translate(1372.000000, 88.000000)">
                <path d="M5.5,5 L5.5,2.56335173 C5.5,1.15356459 6.39907485,0 7.49775722,0 L12.5022428,0 C13.6009251,0 14.5,1.15356459 14.5,2.56335173 L14.5,5" id="Stroke-1"></path>
                <path d="M16.245638,15 L3.75443135,15 C2.83814356,15 2.05952784,14.4833632 1.92250979,13.784844 L0.521263111,6.64299589 C0.351543852,5.77823466 1.21943386,5 2.35318467,5 L17.6468847,5 C18.7806355,5 19.6481985,5.77823466 19.4788063,6.64299589 L18.0775596,13.784844 C17.9405416,14.4833632 17.1619258,15 16.245638,15 Z" id="Stroke-3"></path>
            </g>
        </g>
    </g>
</svg>