<?xml version="1.0" encoding="UTF-8"?>
<svg width="24px" height="22px" viewBox="0 0 24 22" version="1.1" xmlns="http://www.w3.org/2000/svg" xmlns:xlink="http://www.w3.org/1999/xlink">
    <title>Group 3</title>
    <defs>
        <polygon id="path-1" points="0.428973277 0.434782609 23.4289733 0.434782609 23.4289733 21.4347826 0.428973277 21.4347826"></polygon>
    </defs>
    <g id="Page-1" stroke="none" stroke-width="1" fill="none" fill-rule="evenodd">
        <g id="HEADER" transform="translate(-1284.000000, -85.000000)">
            <g id="Group-3" transform="translate(1284.000000, 85.000000)">
                <mask id="mask-2" fill="white">
                    <use xlink:href="#path-1"></use>
                </mask>
                <g id="Clip-2"></g>
                <path d="M6.86959203,4.08266335 C6.69478079,4.08266335 6.54707863,4.09331738 6.43347461,4.10587015 C5.28858167,4.22821219 4.36954131,4.72403603 3.7743698,5.53986056 C3.13582376,6.4150523 2.92839689,7.58081428 3.19014782,8.82223043 C3.93499113,12.4208035 10.2727989,16.9232815 11.4290438,17.7185153 C12.5851404,16.9229439 18.923054,12.4191158 19.667622,8.82339077 C19.9296694,7.58081428 19.7222426,6.4150523 19.0836754,5.53986056 C18.488525,4.72403603 17.5694847,4.22821219 16.4258625,4.10595454 C16.4254389,4.10595454 16.4250153,4.10595454 16.4245917,4.10587015 C16.0381178,4.06325403 15.2565078,4.04257888 14.3598113,4.38831801 C13.2719957,4.81547082 12.3078441,5.69775119 11.7164001,6.80804892 C11.6599581,6.91393522 11.549425,6.98015899 11.4290438,6.98015899 C11.3086413,6.98015899 11.1981082,6.91393522 11.1416663,6.80804892 C10.5502223,5.69775119 9.58607068,4.81547082 8.49634897,4.38757961 C7.86466491,4.14403479 7.28929574,4.08266335 6.86959203,4.08266335 M11.4290438,18.4347826 C11.3662481,18.4347826 11.3034524,18.4167446 11.2489378,18.3805631 C10.9297071,18.1691069 3.4224388,13.1533156 2.55325374,8.95427713 C2.25350773,7.53252304 2.50011569,6.18416573 3.24815703,5.15888928 C3.95428518,4.19087033 5.0314054,3.60403364 6.36273684,3.46175485 C6.80700816,3.41238766 7.70700864,3.38844246 8.73308753,3.78397073 C9.81891231,4.21038514 10.7595552,4.99372015 11.4290438,6.01836369 C12.0984052,4.99382563 13.0389422,4.21049063 14.1230515,3.78468803 C15.1502105,3.38865343 16.0497874,3.41217669 16.4959437,3.46175485 C17.8269786,3.60424461 18.9038871,4.1910813 19.6099093,5.15888928 C20.3579506,6.18416573 20.6045586,7.53252304 20.3044949,8.95554296 C19.4353099,13.1533156 11.9283592,18.1691069 11.6091286,18.3805631 C11.5546139,18.4167446 11.4918182,18.4347826 11.4290438,18.4347826" id="Fill-1" stroke="#000000" stroke-width="0.8" fill="#1A1A1A" mask="url(#mask-2)"></path>
            </g>
        </g>
    </g>
</svg>