<?xml version="1.0" encoding="UTF-8"?>
<svg width="234px" height="30px" viewBox="0 0 234 30" version="1.1" xmlns="http://www.w3.org/2000/svg" xmlns:xlink="http://www.w3.org/1999/xlink">
    <title>Group 17</title>
    <defs>
        <polygon id="path-1" points="0.0325342331 0.260480769 25.0804631 0.260480769 25.0804631 29.7115096 0.0325342331 29.7115096"></polygon>
        <polygon id="path-3" points="0 29.7115385 232.817888 29.7115385 232.817888 0.260480769 0 0.260480769"></polygon>
    </defs>
    <g id="Page-1" stroke="none" stroke-width="1" fill="none" fill-rule="evenodd">
        <g id="HEADER" transform="translate(-21.000000, -23.000000)">
            <g id="Group-17" transform="translate(21.000000, 23.000000)">
                <polygon id="Fill-1" fill="#000000" points="17.6085714 1 4.28857143 15.9198684 4.28857143 1 0.928571429 1 0.928571429 29 4.28857143 29 4.28857143 20.4796326 9.48857143 14.7198563 18.9685714 29 22.9285714 29 11.6885714 12.3201139 21.9285714 1"></polygon>
                <polygon id="Fill-2" fill="#000000" points="30.9285714 29 33.9285714 29 33.9285714 1 30.9285714 1"></polygon>
                <g id="Group-16" transform="translate(0.928571, 0.000000)">
                    <path d="M55.4132893,15.1701346 C59.6353065,15.1701346 61.7463151,13.2449423 61.7463151,9.43580769 C61.7463151,5.62638462 59.6353065,3.74215385 55.4132893,3.74215385 L46.0358255,3.74215385 L46.0358255,15.1701346 L55.4132893,15.1701346 Z M42.6257347,0.670038462 L55.4132893,0.670038462 C61.6651225,0.670038462 65.1564059,3.57801923 65.1564059,9.43580769 C65.1564059,14.9653269 61.3403519,17.6687885 57.1183347,18.1196538 L65.7650648,29.3428269 L61.5433335,29.3428269 L52.9369139,18.24225 L46.0358255,18.24225 L46.0358255,29.3428269 L42.6257347,29.3428269 L42.6257347,0.670038462 Z" id="Fill-3" fill="#000000"></path>
                    <polygon id="Fill-5" fill="#000000" points="73.7628541 0.670153846 77.1729449 0.670153846 77.1729449 15.9485192 90.6915191 0.670153846 95.0756357 0.670153846 84.682978 12.2622692 96.0908296 29.3426538 92.0715081 29.3426538 82.4504664 14.7196731 77.1729449 20.6178462 77.1729449 29.3426538 73.7628541 29.3426538"></polygon>
                    <g id="Group-9" transform="translate(102.634356, 0.000000)">
                        <mask id="mask-2" fill="white">
                            <use xlink:href="#path-1"></use>
                        </mask>
                        <g id="Clip-8"></g>
                        <path d="M6.44675264,6.52756731 C6.44675264,8.16602885 7.66464221,9.64064423 8.96372442,11.1149712 L9.28820908,11.4839135 C12.3332189,9.88641346 13.7540901,8.57564423 13.7540901,6.732375 C13.7540901,4.602375 12.2520263,3.33256731 10.1410177,3.33256731 C8.0706054,3.33256731 6.44675264,4.52045192 6.44675264,6.52756731 L6.44675264,6.52756731 Z M15.8245023,23.8130481 L8.31418331,15.3340096 C5.10707411,17.2185288 3.52381767,19.1434327 3.52381767,21.6830481 C3.52381767,24.6322788 5.95959681,26.5574712 9.36968761,26.5574712 C11.9272557,26.5574712 14.0785747,25.4924712 15.8245023,23.8130481 L15.8245023,23.8130481 Z M20.6960606,29.3428558 L17.9355109,26.2297788 C15.4588496,28.3597788 12.4144115,29.7115096 9.08522748,29.7115096 C3.72679926,29.7115096 0.0325342331,26.6803558 0.0325342331,21.8059327 C0.0325342331,18.3244904 2.10323239,15.3340096 6.24377104,12.9994904 C4.25455141,10.6646827 3.03666184,8.69824038 3.03666184,6.60949038 C3.03666184,3.37324038 5.5130373,0.260451923 10.1410177,0.260451923 C15.2155575,0.260451923 17.163895,3.61929808 17.163895,6.60949038 C17.163895,9.47679808 15.4185391,11.4426635 11.2774287,13.7365096 L17.9758213,21.2734327 C18.9910152,19.7988173 19.8029416,18.1603558 20.493079,16.4809327 L22.8882618,19.0615096 C22.1981244,20.7818942 21.3050054,22.3793942 20.1680226,23.8130481 L25.0804631,29.3428558 L20.6960606,29.3428558 Z" id="Fill-7" fill="#000000" mask="url(#mask-2)"></path>
                    </g>
                    <polygon id="Fill-10" fill="#000000" points="136.726973 0.670153846 140.137064 0.670153846 140.137064 15.9485192 153.655638 0.670153846 158.039755 0.670153846 147.647097 12.2622692 159.054948 29.3426538 155.035627 29.3426538 145.414585 14.7196731 140.137064 20.6178462 140.137064 29.3426538 136.726973 29.3426538"></polygon>
                    <mask id="mask-4" fill="white">
                        <use xlink:href="#path-3"></use>
                    </mask>
                    <g id="Clip-13"></g>
                    <polygon id="Fill-12" fill="#000000" mask="url(#mask-4)" points="166.036944 29.3425962 169.447034 29.3425962 169.447034 0.670096154 166.036944 0.670096154"></polygon>
                    <path d="M192.140405,15.1701346 C196.362422,15.1701346 198.473145,13.2449423 198.473145,9.43580769 C198.473145,5.62638462 196.362422,3.74215385 192.140405,3.74215385 L182.762656,3.74215385 L182.762656,15.1701346 L192.140405,15.1701346 Z M179.352851,0.670038462 L192.140405,0.670038462 C198.392238,0.670038462 201.883522,3.57801923 201.883522,9.43580769 C201.883522,14.9653269 198.067182,17.6687885 193.845451,18.1196538 L202.492467,29.3428269 L198.270164,29.3428269 L189.66403,18.24225 L182.762656,18.24225 L182.762656,29.3428269 L179.352851,29.3428269 L179.352851,0.670038462 Z" id="Fill-14" fill="#000000" mask="url(#mask-4)"></path>
                    <polygon id="Fill-15" fill="#000000" mask="url(#mask-4)" points="210.490113 0.670153846 213.900204 0.670153846 213.900204 15.9485192 227.418778 0.670153846 231.802895 0.670153846 221.410237 12.2622692 232.818088 29.3426538 228.798767 29.3426538 219.177725 14.7196731 213.900204 20.6178462 213.900204 29.3426538 210.490113 29.3426538"></polygon>
                </g>
            </g>
        </g>
    </g>
</svg>